HIERARCHY
ROOT Hips
{
	OFFSET	0.00	0.00	0.00
	CHANNELS 6 Xposition Yposition Zposition Zrotation Xrotation Yrotation
	JOINT LeftUpLeg
	{
		OFFSET	 0.126116	-0.014019	-0.065224
		CHANNELS 3 Zrotation Xrotation Yrotation
		JOINT LeftLeg
		{
			OFFSET	 0.000000	 0.000000	 0.569914
			CHANNELS 3 Zrotation Xrotation Yrotation
			JOINT LeftFoot
			{
				OFFSET	 0.000000	 0.000000	 0.544423
				CHANNELS 3 Zrotation Xrotation Yrotation
				JOINT LeftToeBase
				{
					OFFSET	 0.000000	 0.000000	 0.207117
					CHANNELS 3 Zrotation Xrotation Yrotation
					End Site
					{
						OFFSET	 0.000000	 0.000000	 0.207117
					}
				}
			}
		}
	}
	JOINT RightUpLeg
	{
		OFFSET	-0.124023	-0.008373	-0.065224
		CHANNELS 3 Zrotation Xrotation Yrotation
		JOINT RightLeg
		{
			OFFSET	 0.000000	 0.000000	 0.570047
			CHANNELS 3 Zrotation Xrotation Yrotation
			JOINT RightFoot
			{
				OFFSET	 0.000000	 0.000000	 0.544354
				CHANNELS 3 Zrotation Xrotation Yrotation
				JOINT RightToeBase
				{
					OFFSET	 0.000000	 0.000000	 0.207540
					CHANNELS 3 Zrotation Xrotation Yrotation
					End Site
					{
						OFFSET	 0.000000	 0.000000	 0.207540
					}
				}
			}
		}
	}
	JOINT Spine
	{
		OFFSET	 0.000184	-0.007763	 0.117403
		CHANNELS 3 Zrotation Xrotation Yrotation
		JOINT Spine1
		{
			OFFSET	 0.000000	 0.000000	 0.137269
			CHANNELS 3 Zrotation Xrotation Yrotation
			JOINT Spine2
			{
				OFFSET	 0.000000	 0.000000	 0.156879
				CHANNELS 3 Zrotation Xrotation Yrotation
				JOINT LeftShoulder
				{
					OFFSET	 0.080501	-0.002496	 0.160144
					CHANNELS 3 Zrotation Xrotation Yrotation
					JOINT LeftArm
					{
						OFFSET	 0.000000	 0.000000	 0.164363
						CHANNELS 3 Zrotation Xrotation Yrotation
						JOINT LeftForeArm
						{
							OFFSET	 0.000000	 0.000000	 0.364576
							CHANNELS 3 Zrotation Xrotation Yrotation
							JOINT LeftHand
							{
								OFFSET	 0.000000	 0.000000	 0.360812
								CHANNELS 3 Zrotation Xrotation Yrotation
								JOINT LeftHandIndex1
								{
									OFFSET	 0.000000	 0.000000	 0.086006
									CHANNELS 3 Zrotation Xrotation Yrotation
									JOINT LeftHandIndex2
									{
										OFFSET	 0.000000	 0.000000	 0.047236
										CHANNELS 3 Zrotation Xrotation Yrotation
										JOINT LeftHandIndex3
										{
											OFFSET	-0.004284	-0.000551	 0.038166
											CHANNELS 3 Zrotation Xrotation Yrotation
											End Site
											{
												OFFSET	-0.004284	-0.000551	 0.038166
											}
										}
									}
								}
							}
						}
					}
				}
				JOINT Neck
				{
					OFFSET	 0.000000	 0.000000	 0.176489
					CHANNELS 3 Zrotation Xrotation Yrotation
					JOINT Head
					{
						OFFSET	 0.000000	-0.001747	 0.077940
						CHANNELS 3 Zrotation Xrotation Yrotation
						End Site
						{
							OFFSET	 0.000000	-0.001747	 0.077940
						}
					}
				}
				JOINT RightShoulder
				{
					OFFSET	-0.080363	 0.000306	 0.159706
					CHANNELS 3 Zrotation Xrotation Yrotation
					JOINT RightArm
					{
						OFFSET	 0.000000	 0.000000	 0.164196
						CHANNELS 3 Zrotation Xrotation Yrotation
						JOINT RightForeArm
						{
							OFFSET	 0.000000	 0.000000	 0.365611
							CHANNELS 3 Zrotation Xrotation Yrotation
							JOINT RightHand
							{
								OFFSET	 0.000000	 0.000000	 0.360648
								CHANNELS 3 Zrotation Xrotation Yrotation
								JOINT RightHandIndex1
								{
									OFFSET	 0.000000	 0.000000	 0.069977
									CHANNELS 3 Zrotation Xrotation Yrotation
									JOINT RightHandIndex2
									{
										OFFSET	 0.000000	 0.000000	 0.052305
										CHANNELS 3 Zrotation Xrotation Yrotation
										JOINT RightHandIndex3
										{
											OFFSET	 0.009002	-0.000782	 0.042196
											CHANNELS 3 Zrotation Xrotation Yrotation
											End Site
											{
												OFFSET	 0.009002	-0.000782	 0.042196
											}
										}
									}
								}
							}
						}
					}
				}
			}
		}
	}
}
MOTION
Frames:    4
Frame Time: 0.03333334
-0.087194	 6.707306	 1.250770	-98.918080	 1.212882	 0.549539	-45.202120	-9.501897	-174.852700	 17.383770	-41.339060	 5.527884	-100.831100	 76.694970	 77.531990	-2.179177	 47.945920	-0.513631	 31.811880	-6.778290	-178.682700	-9.852213	-42.009200	-1.179258	 60.308360	 80.292750	-43.485760	 1.962428	 56.286450	 0.848878	-7.955004	 6.508255	 2.150887	-9.027454	 5.719678	-8.038118	-1.679998	-21.622420	 4.711280	-91.229230	 83.958240	 178.242500	 72.868000	 56.745670	-81.930980	 5.731122	-14.681600	-33.976750	 23.116830	-12.622860	-13.332420	-11.837130	 9.694042	-26.558510	-5.213937	-0.202400	 3.566957	-1.378229	 35.397820	-2.634230	-2.073256	 4.239952	 3.326149	-6.743260	-12.394570	-15.994260	 87.726830	 87.418960	-176.798800	-12.054190	 77.650740	-6.120294	-7.866394	-15.581590	 29.262510	-17.154740	-21.507850	 10.685200	-0.908911	 25.215700	-61.775590	 5.070519	-0.690904	-9.399550	-2.350882	 35.473990	 5.254307
-0.087188	 6.720178	 1.251067	-96.389230	 1.473526	 0.934011	-46.592220	-9.337241	-175.607300	 17.825040	-41.724060	 5.867105	-100.540800	 76.168360	 77.243040	-2.196881	 46.994130	-0.482015	 29.837190	-6.515903	-178.995700	-8.726711	-41.419210	-0.420940	 59.077280	 80.865440	-42.743430	 1.943259	 56.843970	 0.875762	-8.050123	 6.110282	 1.843507	-8.907229	 6.432790	-7.784066	-1.051268	-22.330450	 4.665129	-91.229200	 83.958340	 178.242500	 73.417390	 57.805470	-82.292240	 6.527289	-14.513940	-32.626110	 23.333950	-13.252730	-12.925130	-11.667140	 9.752871	-26.008750	-5.213937	-0.202400	 3.566957	-1.378229	 35.397820	-2.634230	-1.021274	 4.254663	 1.856391	-5.680315	-13.269310	-13.751370	 87.726940	 87.418960	-176.798900	-10.790690	 77.542020	-7.123887	-7.192364	-15.467150	 29.791680	-16.546180	-21.423570	 10.679350	-1.338313	 24.618680	-62.012420	 5.070519	-0.690904	-9.399550	-2.350882	 35.473990	 5.254307
-0.086978	 6.736194	 1.251564	-93.421710	 1.920486	 1.291367	-48.045130	-9.260345	-176.544700	 18.594330	-42.062430	 6.428276	-100.171300	 75.587550	 76.702230	-2.211214	 46.178420	-0.455693	 27.321210	-6.462578	-179.449000	-7.402653	-41.087720	 0.452035	 60.423340	 81.943090	-44.581680	 2.021875	 54.404330	 0.763203	-8.179053	 5.882220	 1.663152	-8.723480	 6.919752	-7.816680	 0.162540	-23.523830	 5.005589	-91.229290	 83.958340	 178.242600	 73.995670	 59.807010	-82.380070	 7.327414	-14.021410	-30.763350	 22.772910	-14.155260	-12.045740	-11.357430	 9.669562	-24.841050	-5.213937	-0.202400	 3.566957	-1.378229	 35.397820	-2.634230	 0.514759	 5.120777	 0.029285	-4.249269	-15.347480	-11.084000	 87.726990	 87.418960	-176.799000	-9.493902	 77.331230	-8.372025	-6.907723	-15.554470	 30.219250	-16.457880	-21.243340	 10.700140	-1.570890	 24.338670	-62.320770	 5.070519	-0.690904	-9.399550	-2.350882	 35.473990	 5.254307
-0.086699	 6.761823	 1.252475	-88.770550	 2.677157	 1.631196	-49.900190	-9.436971	-177.941200	 19.593870	-42.674540	 7.192166	-98.412930	 74.852400	 74.894860	-2.246613	 43.955360	-0.387256	 23.316780	-6.081298	 179.965400	-5.254694	-40.158330	 1.829605	 61.738790	 83.520230	-46.769330	 2.070416	 52.664040	 0.690171	-8.366007	 5.511715	 1.479051	-8.428599	 7.634302	-7.757263	 2.413586	-25.439000	 5.726119	-91.229340	 83.958370	 178.242600	 73.485010	 64.355350	-80.524680	 8.397184	-13.487660	-28.579390	 20.926850	-15.932650	-10.101060	-11.067370	 9.182949	-23.429250	-5.213937	-0.202400	 3.566957	-1.378229	 35.397820	-2.634230	 3.361582	 6.584331	-3.387104	-1.407645	-18.655330	-5.970227	 87.726810	 87.419040	-176.798800	-7.642613	 76.705540	-10.163300	-6.534647	-15.649020	 30.751650	-16.431780	-20.846780	 10.741770	-1.230704	 24.902950	-62.551430	 5.070519	-0.690904	-9.399550	-2.350882	 35.473990	 5.254307
